<svg width="624" height="188" viewBox="0 0 624 188" fill="none" xmlns="http://www.w3.org/2000/svg">
<path d="M92.8664 0L77.5037 37.9816H54.8913L70.0813 0H92.8664Z" fill="url(#paint0_linear_52_2)"/>
<path d="M216.113 49.2547C225.779 49.6016 234.755 51.5093 243.041 55.3248C251.326 59.1403 258.748 64.1698 264.79 69.8931C271.177 76.1366 276.01 83.4208 279.635 91.7455C283.26 100.07 284.986 108.915 284.986 118.107C284.986 127.646 283.087 136.664 279.29 145.162C275.492 153.661 270.314 160.945 263.927 167.188C257.54 173.432 250.118 178.288 241.832 181.93C233.547 185.572 224.916 187.306 215.94 187.48H169.852V164.24H218.702C224.744 164.587 230.44 163.373 235.618 160.771C240.969 158.17 245.457 154.701 249.427 150.365C253.397 146.03 256.504 141 258.748 135.45C260.992 129.9 262.201 124.177 262.201 118.454C262.201 112.731 260.992 107.008 258.748 101.458C256.504 95.7344 253.397 90.8784 249.6 86.5426C245.63 82.2068 241.142 78.7381 235.791 76.1366C230.612 73.5351 224.916 72.3211 218.875 72.4946H170.025V49.2547H216.113Z" fill="url(#paint1_linear_52_2)"/>
<path d="M479.522 49.4281H502.307H502.48V169.963L479.522 187.827V49.4281Z" fill="url(#paint2_linear_52_2)"/>
<path d="M588.959 106.487C586.543 106.14 584.989 105.967 583.954 105.793C580.329 105.1 576.876 104.406 573.769 104.059C570.835 103.539 568.073 102.672 566.002 101.631C563.93 100.591 562.204 99.0296 560.996 96.9484C559.788 95.0407 559.097 92.2658 559.097 88.6237C559.097 83.4208 560.996 79.6053 564.966 76.8304C568.936 74.0555 574.287 72.668 581.364 72.668C584.817 72.668 587.924 73.0148 590.858 73.7086C593.447 74.2289 595.864 75.2695 598.281 76.4835C600.697 77.6975 602.596 79.6053 603.977 81.8599L622.792 67.2916C618.131 61.7418 612.262 57.2326 605.53 54.1108C598.798 50.8156 591.549 49.2547 584.126 49.2547C576.013 49.2547 569.109 50.1218 563.585 52.0296C557.889 53.9373 553.228 56.1919 549.603 58.9669C545.806 61.7418 543.044 64.8635 540.973 68.1588C538.901 71.454 537.348 74.5758 536.485 77.5241C535.449 80.4725 534.931 82.9005 534.758 84.9817C534.586 87.0628 534.413 88.2768 534.413 88.4503C534.413 93.6532 535.276 98.3359 536.83 102.151C538.556 105.967 540.455 109.262 542.871 112.037C545.288 114.812 548.05 117.067 550.984 118.801C553.919 120.535 556.853 122.096 559.615 123.137C562.377 124.351 564.966 125.044 567.21 125.565C569.454 126.085 571.008 126.258 572.043 126.432C575.668 127.126 579.12 127.819 582.4 128.686C585.68 129.38 588.442 130.594 591.031 131.982C593.62 133.369 595.519 135.277 597.072 137.531C598.626 139.959 599.316 142.734 599.316 146.376C599.316 151.232 597.417 155.568 593.447 159.21C589.477 162.852 584.126 164.587 577.049 164.587C573.252 164.587 569.972 164.066 567.21 163.199C564.448 162.159 562.032 161.118 560.305 160.078C558.407 159.037 557.026 157.996 556.163 156.956C555.3 155.915 554.782 155.395 554.782 155.221L535.967 169.79C540.8 175.339 546.496 179.675 553.228 182.797C559.788 185.919 567.037 187.48 574.46 187.48C582.573 187.48 589.477 186.439 595.001 184.531C600.697 182.624 605.358 180.022 608.983 177.074C612.608 173.952 615.542 170.83 617.441 167.362C619.512 164.066 620.893 160.771 621.929 157.649C622.964 154.528 623.482 151.926 623.655 149.845C623.827 147.59 624 146.376 624 146.203C624 140.306 623.137 135.103 621.411 130.767C619.685 126.432 617.613 122.79 615.024 119.841C612.435 116.893 609.673 114.465 606.393 112.731C603.114 110.996 600.007 109.609 597.072 108.568C594.138 107.528 591.376 106.834 588.959 106.487Z" fill="url(#paint3_linear_52_2)"/>
<path fill-rule="evenodd" clip-rule="evenodd" d="M378.715 49.4281C387.864 49.4281 396.667 51.1624 404.953 54.8045C413.238 58.4466 420.661 63.3027 427.047 69.5462C433.434 75.7898 438.44 83.0739 442.237 91.5721C446.035 100.07 447.934 109.089 447.934 118.801C447.934 127.993 446.208 136.838 442.583 145.162C438.958 153.487 434.125 160.771 427.91 167.188C421.696 173.605 414.447 178.635 405.988 182.45C397.53 186.266 388.554 188 378.715 188C369.567 188 360.763 186.266 352.305 182.624C344.02 178.982 336.597 174.126 330.211 167.882C323.824 161.638 318.818 154.181 315.021 145.856C311.223 137.358 309.324 128.34 309.324 118.801C309.324 109.436 311.051 100.591 314.675 92.2658C318.3 83.9411 323.134 76.6569 329.348 70.4134C335.562 64.1698 342.812 59.1403 351.27 55.4982C360.073 51.5093 369.049 49.6015 378.715 49.4281ZM396.149 161.118C390.626 163.546 384.757 164.76 378.715 164.76C372.329 164.413 366.287 163.026 360.591 160.424C355.067 157.996 350.061 154.701 345.919 150.539C341.776 146.203 338.496 141.52 336.08 135.97C333.663 130.421 332.455 124.524 332.455 118.281C332.455 111.864 333.663 105.967 336.252 100.244C338.841 94.6938 342.121 89.6643 346.436 85.5019C350.752 81.3396 355.758 78.0444 361.281 75.6163C366.805 73.1883 372.674 71.9743 378.888 71.9743C385.275 71.9743 391.316 73.1883 396.84 75.7898C402.363 78.3913 407.369 81.8599 411.512 86.0223C415.655 90.1846 418.934 95.2141 421.351 100.764C423.768 106.487 424.976 112.384 424.976 118.454C424.976 124.871 423.768 130.941 421.178 136.491C418.589 142.214 415.31 147.07 410.994 151.232C406.679 155.395 401.673 158.69 396.149 161.118Z" fill="url(#paint4_linear_52_2)"/>
<path fill-rule="evenodd" clip-rule="evenodd" d="M95.4556 54.6311C87.1701 50.989 78.3668 49.2547 69.2182 49.2547C59.5518 49.4281 50.4033 51.5093 41.9452 55.1514C33.4871 58.7934 26.2373 63.823 20.0232 70.0665C13.8091 76.3101 8.97588 83.5942 5.35099 91.9189C1.72609 100.244 0 109.089 0 118.454C0 127.993 1.89873 137.011 5.69624 145.509C9.49375 154.007 14.4995 161.291 20.8862 167.535C27.273 173.779 34.5227 178.808 42.9808 182.277C51.2663 185.919 60.0697 187.653 69.3909 187.653C79.0573 187.653 88.2058 185.745 96.6639 182.103C105.122 178.288 112.372 173.258 118.586 166.841C124.8 160.424 129.633 153.14 133.258 144.815C136.883 136.491 138.609 127.819 138.609 118.454C138.609 108.742 136.71 99.7234 132.913 91.2252C129.115 82.727 124.11 75.4429 117.723 69.1994C111.163 63.1292 103.741 58.2731 95.4556 54.6311ZM69.2182 164.76C75.2597 164.76 81.1287 163.546 86.6523 161.118C92.176 158.69 97.1817 155.395 101.497 151.579C105.812 147.243 109.092 142.387 111.681 136.838C114.271 131.114 115.479 125.218 115.479 118.801C115.479 112.557 114.27 106.661 111.854 101.111C109.437 95.561 106.158 90.5315 102.015 86.3691C97.8722 82.0333 92.8664 78.7381 87.3427 76.1366C81.8191 73.5351 75.7776 72.3211 69.3909 72.3211C63.1768 72.3211 57.3079 73.5351 51.7842 75.9632C46.088 78.3912 41.2547 81.6864 36.9393 85.8488C32.624 90.0112 29.3444 94.8673 26.7552 100.591C24.166 106.14 22.9576 112.21 22.9576 118.627C22.9576 125.044 24.1659 130.767 26.5825 136.317C28.9991 141.867 32.2788 146.723 36.4215 150.886C40.5643 155.048 45.5701 158.343 51.0937 160.771C56.6174 163.199 62.6589 164.587 69.2182 164.76Z" fill="url(#paint5_linear_52_2)"/>
<defs>
<linearGradient id="paint0_linear_52_2" x1="53.183" y1="129.498" x2="283.22" y2="-215.146" gradientUnits="userSpaceOnUse">
<stop stop-color="#440060"/>
<stop offset="0.2045" stop-color="#4D0064"/>
<stop offset="0.5371" stop-color="#65006F"/>
<stop offset="0.9544" stop-color="#8C0081"/>
<stop offset="1" stop-color="#910083"/>
</linearGradient>
<linearGradient id="paint1_linear_52_2" x1="53.183" y1="129.498" x2="283.22" y2="-215.146" gradientUnits="userSpaceOnUse">
<stop stop-color="#440060"/>
<stop offset="0.2045" stop-color="#4D0064"/>
<stop offset="0.5371" stop-color="#65006F"/>
<stop offset="0.9544" stop-color="#8C0081"/>
<stop offset="1" stop-color="#910083"/>
</linearGradient>
<linearGradient id="paint2_linear_52_2" x1="53.183" y1="129.498" x2="283.22" y2="-215.146" gradientUnits="userSpaceOnUse">
<stop stop-color="#440060"/>
<stop offset="0.2045" stop-color="#4D0064"/>
<stop offset="0.5371" stop-color="#65006F"/>
<stop offset="0.9544" stop-color="#8C0081"/>
<stop offset="1" stop-color="#910083"/>
</linearGradient>
<linearGradient id="paint3_linear_52_2" x1="53.183" y1="129.498" x2="283.22" y2="-215.146" gradientUnits="userSpaceOnUse">
<stop stop-color="#440060"/>
<stop offset="0.2045" stop-color="#4D0064"/>
<stop offset="0.5371" stop-color="#65006F"/>
<stop offset="0.9544" stop-color="#8C0081"/>
<stop offset="1" stop-color="#910083"/>
</linearGradient>
<linearGradient id="paint4_linear_52_2" x1="53.183" y1="129.498" x2="283.22" y2="-215.146" gradientUnits="userSpaceOnUse">
<stop stop-color="#440060"/>
<stop offset="0.2045" stop-color="#4D0064"/>
<stop offset="0.5371" stop-color="#65006F"/>
<stop offset="0.9544" stop-color="#8C0081"/>
<stop offset="1" stop-color="#910083"/>
</linearGradient>
<linearGradient id="paint5_linear_52_2" x1="53.183" y1="129.498" x2="283.22" y2="-215.146" gradientUnits="userSpaceOnUse">
<stop stop-color="#440060"/>
<stop offset="0.2045" stop-color="#4D0064"/>
<stop offset="0.5371" stop-color="#65006F"/>
<stop offset="0.9544" stop-color="#8C0081"/>
<stop offset="1" stop-color="#910083"/>
</linearGradient>
</defs>
</svg>
